<?xml version="1.0" standalone="no"?>
<!DOCTYPE svg PUBLIC "-//W3C//DTD SVG 20010904//EN"
 "http://www.w3.org/TR/2001/REC-SVG-20010904/DTD/svg10.dtd">
<svg version="1.0" xmlns="http://www.w3.org/2000/svg"
 width="700.000000pt" height="700.000000pt" viewBox="0 0 700.000000 700.000000"
 preserveAspectRatio="xMidYMid meet">
<metadata>
Created by potrace 1.14, written by Peter Selinger 2001-2017
</metadata>
<g transform="translate(0.000000,700.000000) scale(0.100000,-0.100000)"
fill="#000000" stroke="none">
<path d="M345 6985 c-156 -43 -267 -147 -320 -302 l-24 -68 0 -3110 c0 -3393
-4 -3157 57 -3268 35 -65 115 -145 179 -179 117 -62 -136 -58 3288 -55 3052 2
3121 2 3170 21 145 56 257 182 289 327 14 61 16 393 16 3157 0 2958 -1 3091
-18 3154 -45 159 -166 280 -323 322 -79 21 -6237 22 -6314 1z"/>
</g>
</svg>
