<?xml version="1.0" standalone="no"?>
<!DOCTYPE svg PUBLIC "-//W3C//DTD SVG 20010904//EN"
 "http://www.w3.org/TR/2001/REC-SVG-20010904/DTD/svg10.dtd">
<svg version="1.0" xmlns="http://www.w3.org/2000/svg"
 width="700.000000pt" height="700.000000pt" viewBox="0 0 700.000000 700.000000"
 preserveAspectRatio="xMidYMid meet">
<metadata>
Created by potrace 1.14, written by Peter Selinger 2001-2017
</metadata>
<g transform="translate(0.000000,700.000000) scale(0.100000,-0.100000)"
fill="#000000" stroke="none">
<path d="M2499 6882 c-11 -24 -19 -45 -19 -48 0 -4 -221 -630 -320 -904 -26
-74 -87 -245 -135 -380 -48 -135 -122 -344 -165 -465 -83 -232 -141 -397 -272
-765 -43 -124 -104 -295 -134 -380 -31 -85 -69 -193 -85 -240 -17 -47 -34 -94
-39 -105 -9 -20 -142 -398 -265 -750 -36 -104 -73 -206 -80 -225 -12 -29 -89
-245 -155 -435 -10 -27 -57 -160 -105 -295 -48 -135 -111 -312 -140 -395 -29
-82 -75 -213 -103 -290 -190 -528 -412 -1159 -412 -1168 0 -4 438 -7 974 -7
l974 0 10 28 c6 15 44 131 85 257 42 127 127 388 190 580 63 193 186 566 272
830 86 264 170 518 185 565 28 84 73 220 440 1340 105 322 220 673 256 780 35
107 64 202 64 210 0 41 32 -46 175 -485 86 -264 174 -532 195 -595 21 -63 107
-324 190 -580 84 -256 178 -544 210 -640 32 -96 129 -391 215 -655 86 -264
172 -525 190 -580 18 -55 104 -315 190 -578 l156 -477 975 0 c536 0 974 4 974
8 0 8 -38 118 -260 742 -274 770 -322 905 -375 1055 -31 88 -67 192 -81 230
-14 39 -30 84 -36 100 -5 17 -14 39 -18 50 -4 11 -13 34 -18 50 -59 168 -371
1046 -407 1145 -13 36 -51 144 -85 240 -33 96 -66 189 -71 205 -6 17 -15 39
-20 50 -4 11 -47 130 -94 265 -48 135 -136 385 -197 555 -60 171 -139 393
-175 495 -36 102 -71 199 -79 217 -8 17 -14 35 -14 39 0 5 -11 38 -24 74 -13
36 -39 106 -56 155 -17 50 -42 119 -55 155 -13 36 -76 214 -140 395 -197 556
-215 609 -229 640 l-13 30 -1013 0 -1013 0 -18 -43z m2017 -137 c18 -49 101
-283 184 -520 84 -236 156 -439 161 -450 4 -11 44 -121 88 -245 129 -368 360
-1020 386 -1090 13 -36 53 -150 90 -255 37 -104 70 -199 75 -210 5 -11 38
-103 74 -205 36 -102 76 -216 90 -255 30 -86 214 -602 291 -820 101 -285 166
-469 190 -535 24 -66 135 -379 380 -1070 75 -212 147 -414 160 -450 13 -36 60
-166 103 -290 l80 -225 -121 -5 c-67 -3 -464 -4 -882 -2 l-761 2 -97 303 c-54
166 -102 311 -107 322 -5 11 -29 85 -55 165 -25 80 -83 260 -130 400 -46 140
-167 511 -270 825 -103 314 -202 615 -220 670 -18 55 -111 336 -205 625 -95
289 -210 640 -256 780 -46 140 -116 355 -156 478 -40 122 -75 222 -78 222 -3
0 -24 -60 -48 -133 -87 -266 -365 -1115 -397 -1212 -19 -55 -113 -343 -210
-640 -97 -297 -198 -605 -225 -685 -26 -80 -116 -354 -200 -610 -83 -256 -176
-537 -205 -625 -29 -88 -105 -322 -170 -520 -64 -198 -118 -361 -120 -363 -2
-2 -132 -3 -1107 -2 l-658 0 15 37 c12 34 162 457 220 623 30 84 229 645 259
730 60 167 92 256 194 545 61 171 160 450 220 620 61 171 171 481 245 690 75
209 161 452 192 540 70 195 76 211 181 510 47 132 89 251 95 265 6 14 21 56
34 95 13 38 33 95 44 125 11 30 78 219 149 420 320 900 521 1467 530 1490 l10
25 953 0 954 0 31 -90z"/>
<path d="M3422 2228 c-339 -39 -639 -283 -756 -616 -57 -159 -74 -352 -46
-512 67 -394 369 -706 755 -780 82 -15 289 -6 378 18 365 99 644 432 684 816
37 350 -90 667 -353 881 -183 149 -428 221 -662 193z m225 -92 c410 -60 719
-447 708 -889 -3 -102 -13 -160 -46 -260 -114 -348 -418 -581 -774 -590 -62
-2 -185 17 -253 39 -255 83 -455 286 -541 551 -52 160 -59 294 -26 484 31 174
172 397 325 511 172 129 392 185 607 154z"/>
</g>
</svg>
