<?xml version="1.0" standalone="no"?>
<!DOCTYPE svg PUBLIC "-//W3C//DTD SVG 20010904//EN"
 "http://www.w3.org/TR/2001/REC-SVG-20010904/DTD/svg10.dtd">
<svg version="1.0" xmlns="http://www.w3.org/2000/svg"
 width="260.000000pt" height="260.000000pt" viewBox="0 0 260.000000 260.000000"
 preserveAspectRatio="xMidYMid meet">
<metadata>
Created by potrace 1.11, written by Peter Selinger 2001-2013
</metadata>
<g transform="translate(0.000000,260.000000) scale(0.100000,-0.100000)"
fill="#000000" stroke="none">
<path d="M0 1300 l0 -1300 1300 0 1300 0 0 1300 0 1300 -1300 0 -1300 0 0
-1300z m1880 578 c75 -18 160 -67 217 -123 29 -30 53 -57 53 -62 0 -4 -18 -21
-40 -36 l-40 -29 -45 47 c-27 27 -74 60 -113 78 -64 30 -73 32 -187 32 -116 0
-122 -1 -186 -33 -197 -99 -290 -333 -221 -557 18 -60 55 -119 106 -170 165
-166 443 -165 606 0 l53 54 44 -30 44 -30 -31 -39 c-34 -43 -103 -97 -167
-129 -118 -59 -317 -67 -447 -17 -168 64 -287 195 -330 363 -20 77 -21 221 -1
296 54 208 220 358 440 397 57 10 178 4 245 -12z m-1630 -298 l0 -300 290 0
290 0 0 300 0 300 55 0 55 0 0 -535 0 -535 -55 0 -55 0 0 180 0 180 -290 0
-290 0 0 -180 0 -180 -55 0 -55 0 0 535 0 535 55 0 55 0 0 -300z"/>
</g>
</svg>
