<svg width="386px" height="71px" viewBox="0 0 386 71" version="1.1" xmlns="http://www.w3.org/2000/svg" xmlns:xlink="http://www.w3.org/1999/xlink">
    <g id="Page-1" stroke="none" stroke-width="1" fill="none" fill-rule="evenodd">
        <g id="logo" transform="translate(0.850264, 1.121480)" fill="#8F86AB" fill-rule="nonzero" stroke="#8F86AB" stroke-width="1.27">
            <g id="hobbs">
                <polygon id="path273273" points="37.21608 2.55448 24.78024 2.55448 24.78024 28.79776 12.43584 28.79776 12.43584 2.55448 0 2.55448 0 66.56248 12.43584 66.56248 12.43584 40.59352 24.78024 40.59352 24.78024 66.56248 37.21608 66.56248"></polygon>
                <path d="M62.1392077,1 C55.098315,1 42.662475,5.572 42.662475,21.29968 L42.662475,47.81728 C42.662475,63.54496 55.098315,68.11696 62.1392077,68.11696 C69.180075,68.11696 81.615915,63.54496 81.615915,47.81728 L81.615915,21.29968 C81.615915,5.572 69.180075,1 62.1392077,1 Z M69.180075,21.29968 L69.180075,47.81728 C69.180075,53.578 65.7053677,55.864 62.1392077,55.864 C58.573035,55.864 55.098315,53.578 55.098315,47.81728 L55.098315,21.29968 C55.098315,15.53896 58.573035,13.25296 62.1392077,13.25296 C65.7053677,13.25296 69.180075,15.53896 69.180075,21.29968 Z" id="path273275"></path>
                <path d="M117.69471,34.46704 C121.078003,31.44952 122.815363,26.87752 122.815363,21.574 C122.815363,5.29768 112.20831,2.55448 107.453443,2.55448 L87.15375,2.55448 L87.15375,66.56248 L106.63047,66.56248 C119.249203,66.56248 124.82703,57.96712 124.82703,47.6344 C124.82703,42.51376 122.44959,37.02736 117.69471,34.46704 Z M99.58959,14.35024 L105.89895,14.35024 C107.91063,14.35024 111.01959,15.6304 111.01959,21.574 C111.01959,27.5176 107.91063,28.79776 105.89895,28.79776 L99.58959,28.79776 L99.58959,14.35024 Z M106.63047,54.76672 L99.58959,54.76672 L99.58959,40.59352 L106.63047,40.59352 C108.64215,40.59352 112.39119,41.96512 112.39119,47.6344 C112.39119,53.39512 108.64215,54.76672 106.63047,54.76672 Z" id="path273277"></path>
                <path d="M160.021435,34.46704 C163.404715,31.44952 165.142075,26.87752 165.142075,21.574 C165.142075,5.29768 154.535035,2.55448 149.780155,2.55448 L129.480475,2.55448 L129.480475,66.56248 L148.957195,66.56248 C161.575915,66.56248 167.153755,57.96712 167.153755,47.6344 C167.153755,42.51376 164.776315,37.02736 160.021435,34.46704 Z M141.916315,14.35024 L148.225675,14.35024 C150.237355,14.35024 153.346315,15.6304 153.346315,21.574 C153.346315,27.5176 150.237355,28.79776 148.225675,28.79776 L141.916315,28.79776 L141.916315,14.35024 Z M148.957195,54.76672 L141.916315,54.76672 L141.916315,40.59352 L148.957195,40.59352 C150.968875,40.59352 154.717915,41.96512 154.717915,47.6344 C154.717915,53.39512 150.968875,54.76672 148.957195,54.76672 Z" id="path273279"></path>
                <path d="M181.17693,17.00784 C181.17693,12.98448 183.82869,12.07008 186.20613,12.07008 C190.869583,12.07008 191.60109,16.4592 191.60109,20.1168 L204.03693,20.1168 C204.03693,16.18488 203.67117,0 186.389023,0 C178.34229,0 169.381183,5.12064 169.381183,16.64208 C169.381183,36.02736 192.88125,37.9476 192.88125,48.82896 C192.88125,52.85232 190.412383,55.04688 186.663343,55.04688 C181.99989,55.04688 180.26253,49.92624 180.26253,46.1772 L167.82669,46.1772 C167.82669,50.20056 169.198303,67.11696 186.480463,67.11696 C196.90461,67.11696 204.95133,61.53912 204.95133,47.64024 C204.95133,30.6324 181.17693,26.88336 181.17693,17.00784 Z" id="path273281"></path>
            </g>
            <g id="code" transform="translate(204.504138, 2.554480)">
                <path d="M1.13686838e-13,64.008 L14.08176,64.008 C8.13816,61.53912 2.286,56.05272 2.286,45.2628 L2.286,18.7452 C2.286,7.95528 8.13816,2.46888 14.08176,0 L1.13686838e-13,0 L1.13686838e-13,64.008 Z M29.44368,0 C35.38728,2.46888 41.23944,7.95528 41.23944,18.7452 L41.23944,0 L29.44368,0 Z M14.72184,45.2628 C14.72184,51.02352 18.19656,53.30952 21.76272,53.30952 C25.32888,53.30952 28.8036,51.02352 28.8036,45.2628 L28.8036,38.03904 L41.23944,38.03904 L41.23944,26.24328 L28.8036,26.24328 L28.8036,18.7452 C28.8036,12.98448 25.32888,10.69848 21.76272,10.69848 C18.19656,10.69848 14.72184,12.98448 14.72184,18.7452 L14.72184,45.2628 Z M29.44368,64.008 L41.23944,64.008 L41.23944,45.2628 C41.23944,56.05272 35.38728,61.53912 29.44368,64.008 Z" id="path273283"></path>
                <path d="M40.8979624,64.008 L54.9797224,64.008 C49.0361351,61.53912 43.1839624,56.05272 43.1839624,45.2628 L43.1839624,18.7452 C43.1839624,7.95528 49.0361351,2.46888 54.9797224,0 L40.8979624,0 L40.8979624,64.008 Z M70.3416424,64.008 L84.5148551,64.008 L84.5148551,0 L70.3416424,0 C76.2852551,2.46888 82.1374024,7.95528 82.1374024,18.7452 L82.1374024,45.2628 C82.1374024,56.05272 76.2852551,61.53912 70.3416424,64.008 L70.3416424,64.008 Z M55.6198024,45.2628 C55.6198024,51.02352 59.0945224,53.30952 62.6606824,53.30952 C66.2268424,53.30952 69.7015624,51.02352 69.7015624,45.2628 L69.7015624,18.7452 C69.7015624,12.98448 66.2268424,10.69848 62.6606824,10.69848 C59.0945224,10.69848 55.6198024,12.98448 55.6198024,18.7452 L55.6198024,45.2628 Z" id="path273285"></path>
                <path d="M93.8017301,66.20256 C98.1908374,66.20256 101.756997,62.6364 101.756997,58.15584 C101.756997,53.76672 98.1908374,50.20056 93.8017301,50.20056 C89.3211701,50.20056 85.7550101,53.76672 85.7550101,58.15584 C85.7550101,62.6364 89.3211701,66.20256 93.8017301,66.20256 Z" id="path273287"></path>
                <path d="M103.048587,64.008 L106.248987,64.008 L106.248987,0 L103.048587,0 L103.048587,64.008 Z M121.976667,64.008 L143.922267,64.008 L143.922267,0 L121.976667,0 C129.017547,0 141.544827,3.01752 141.544827,18.7452 L141.544827,45.2628 C141.544827,60.99048 129.017547,64.008 121.976667,64.008 Z M118.77628,51.75504 L121.976667,51.75504 C125.542827,51.75504 129.017547,51.02352 129.017547,45.2628 L129.017547,18.7452 C129.017547,12.98448 125.542827,12.25296 121.976667,12.25296 L118.77628,12.25296 L118.77628,51.75504 Z" id="path273289"></path>
                <path d="M143.676522,64.008 L146.876922,64.008 L146.876922,0 L143.676522,0 L143.676522,64.008 Z M159.404202,52.21224 L178.057962,52.21224 L178.057962,64.008 L179.795335,64.008 L179.795335,0 L178.057962,0 L178.057962,11.79576 L159.404202,11.79576 L159.404202,26.24328 L175.589095,26.24328 L175.589095,38.03904 L159.404202,38.03904 L159.404202,52.21224 Z" id="path273291"></path>
            </g>
        </g>
    </g>
</svg>