
<svg viewBox="0 0 446 50" version="1.1" xmlns="http://www.w3.org/2000/svg" xmlns:xlink="http://www.w3.org/1999/xlink">
  <g id="logo" transform="translate(1.311542, 1.052440)" fill-rule="nonzero" >
      <g id="path701424" transform="translate(0.000000, 1.179360)">
          <polygon id="Path" points="46.1687226 45.4177997 33.5523552 45.4177997 23.084698 14.0120253 12.6155848 45.4177997 0 45.4177997 16.4004386 0 29.7676197 0"></polygon>
          <path d="M17.1087098,37.4308571 C17.1087098,34.0437916 19.7690584,31.298358 23.0505912,31.298358 C26.332124,31.298358 28.9924726,34.0438007 28.9924726,37.4308571 C28.9924726,40.8179135 26.332124,43.5633562 23.0505912,43.5633562 C19.7690584,43.5633562 17.1087098,40.8179226 17.1087098,37.4308571 Z" id="Path"></path>
      </g>
      <g id="path701426" transform="translate(49.862767, 1.179360)">
          <path d="M38.7276526,22.7295614 C38.7158772,39.3113994 24.5222341,45.4596779 16.9908466,45.4596779 L5.6771715,45.4596779 L5.6771715,45.4177997 L0,45.4177997 L0,0 L16.9908466,0 C24.5222341,0 38.7158772,6.1482785 38.7276526,22.7295614 Z M26.716144,22.7302257 C26.7070349,15.1278582 21.77357,10.0659832 14.120106,10.0659832 L11.3543339,10.0659832 L11.3543339,35.3943499 L14.120106,35.3943499 C21.77357,35.3943499 26.7070349,30.332484 26.716144,22.7302257 Z" id="Shape"></path>
      </g>
      <g id="path701428" transform="translate(93.884017, 1.179360)">
          <path d="M36.464428,45.4177997 L22.586928,45.4177997 L12.5307182,29.0664556 L11.3545614,29.0664556 L11.3545614,45.4177997 L0,45.4177997 L0,0 L18.0249342,0 C22.8357584,0 32.3414364,1.9821802 32.3414364,14.5335645 C32.3414364,22.9981661 28.0176078,26.6526078 23.7262025,28.1366904 L36.464428,45.4177997 Z M20.8851279,14.5335645 C20.8851279,10.3819079 18.1604605,9.1572117 15.4202412,9.1572117 L11.3545705,9.1572117 L11.3545705,19.9099173 L15.4202412,19.9099173 C18.1604605,19.9099173 20.8851279,18.6853303 20.8851279,14.5335645 Z" id="Shape"></path>
      </g>
      <g id="path701430" transform="translate(134.322142, 1.179360)">
          <polygon id="Path" points="0 45.4177997 0 0 11.3545614 0 11.3545614 45.4177997"></polygon>
      </g>
      <g id="path701432" transform="translate(152.877616, 1.179360)">
          <polygon id="Path" points="11.3543339 35.3248168 25.3113679 35.3248168 25.3113679 45.4177997 0 45.4177997 0 0 11.3543339 0 11.3543339 0.0852033 25.3113679 0.0852033 25.3113679 10.1780679 11.3543339 10.1780679 11.3543339 35.3248168"></polygon>
          <path d="M13.9177129,22.7472245 C13.9177129,19.360159 16.5781707,16.6146071 19.8602586,16.6146071 C23.1416822,16.6146071 25.80214,19.360159 25.80214,22.7472245 C25.80214,26.13429 23.1416822,28.8797236 19.8602586,28.8797236 C16.5781707,28.8797236 13.9177129,26.1342809 13.9177129,22.7472245 Z" id="Path"></path>
      </g>
      <g id="path701434" transform="translate(184.869803, 1.179360)">
          <polygon id="Path" points="44.1198849 0 44.1198849 45.4177997 32.7657694 45.4177997 11.3545614 17.3878614 11.3545614 45.4177906 0 45.4177906 0 0 11.3545614 0 32.7657785 28.0299292 32.7657785 0"></polygon>
      </g>
      <g id="path701436" transform="translate(236.185267, 1.179360)">
          <polygon id="Path" points="39.5485727 0 39.5485727 45.4177997 28.1942297 45.4177997 28.1942297 26.5660668 11.3541246 26.5660668 11.3541246 45.4177997 0 45.4177997 0 0 11.3541155 0 11.3541155 17.7351174 28.1942297 17.7351174 28.1942297 0"></polygon>
      </g>
      <g id="path701438" transform="translate(280.990710, 0.065520)">
          <path d="M48.9231652,23.9030519 C48.9231652,37.1044947 37.9716155,47.8055487 24.4611367,47.8055487 C10.9519956,47.8055487 0,37.1044947 0,23.9030519 C0,10.7016091 10.9519956,0 24.4611367,0 C37.9716155,0 48.9231652,10.7016091 48.9231652,23.9030519 Z M37.2086897,23.9030519 C37.2086897,17.0241799 31.5020797,11.4473177 24.4611367,11.4473177 C17.4210764,11.4473177 11.7144755,17.0241799 11.7144755,23.9030519 C11.7144755,30.7819239 17.4219682,36.3588953 24.4611367,36.3588953 C31.5020797,36.3588953 37.2086897,30.781933 37.2086897,23.9030519 Z" id="Shape"></path>
      </g>
      <g id="path701440" transform="translate(335.105116, 1.179360)">
          <path d="M33.6893284,32.2510097 C33.6893284,37.3483201 30.8291347,45.4177906 18.4559375,45.4177906 L0,45.4177906 L0,0 L16.8446642,0 C20.694947,0 29.5291178,0.944216 29.5291178,11.7493558 C29.5291178,16.1927129 27.5351622,19.7127476 24.6658594,21.248591 C27.9284005,21.6346039 33.6893284,24.0872268 33.6893284,32.2510097 Z M22.0880478,31.4693197 C22.0880478,27.7671121 18.7802979,26.6597149 14.0021336,26.6597149 L11.3536696,26.6597149 L11.3536696,36.2789245 L14.8933603,36.2789245 C18.7305391,36.2789245 22.0880478,35.1715182 22.0880478,31.4693197 Z M11.3543339,17.8812998 L13.5933434,17.8812998 C15.0512089,17.8812998 18.9834736,17.5386029 18.9834736,13.4930341 C18.9834736,9.446801 14.9706739,9.1041041 13.5933434,9.1041041 L11.3543339,9.1041041 L11.3543339,17.8812998 Z" id="Shape"></path>
      </g>
      <g id="path701442" transform="translate(374.007616, 1.179360)">
          <path d="M33.6893284,32.2510097 C33.6893284,37.3483201 30.8291347,45.4177906 18.4559375,45.4177906 L0,45.4177906 L0,0 L16.8446642,0 C20.694947,0 29.5291178,0.944216 29.5291178,11.7493558 C29.5291178,16.1927129 27.5351622,19.7127476 24.6658594,21.248591 C27.9284005,21.6346039 33.6893284,24.0872268 33.6893284,32.2510097 Z M22.0880478,31.4693197 C22.0880478,27.7671121 18.7802979,26.6597149 14.0021336,26.6597149 L11.3536696,26.6597149 L11.3536696,36.2789245 L14.8933603,36.2789245 C18.7305391,36.2789245 22.0880478,35.1715182 22.0880478,31.4693197 Z M11.3543339,17.8812998 L13.5933434,17.8812998 C15.0512089,17.8812998 18.9834736,17.5386029 18.9834736,13.4930341 C18.9834736,9.446801 14.9706739,9.1041041 13.5933434,9.1041041 L11.3543339,9.1041041 L11.3543339,17.8812998 Z" id="Shape"></path>
      </g>
      <g id="path701444" transform="translate(410.747956, 0.000000)">
          <path d="M32.6355848,32.4652874 C32.6355848,42.9742768 24.369163,47.8559718 15.526875,47.8559718 C6.684587,47.8559718 0,42.7456666 0,42.7456666 L4.9219079,33.2463222 C7.9153984,36.3772227 12.7986495,37.8613053 15.526875,37.8613053 C18.256875,37.8613053 20.5656451,35.7508242 20.5656451,33.5478052 C20.5656451,25.5510892 1.8164419,30.6024173 1.8164419,14.9103591 C1.8164419,4.8521473 9.0200201,0 17.1087098,0 C24.9059174,0 30.818697,3.6674365 30.818697,3.6674365 L26.2491502,12.8666356 C26.2491502,12.8666356 22.4265314,9.8000539 18.8665113,9.8000539 C16.2111586,9.8000539 13.8281871,10.7854838 13.8281871,13.7079852 C13.828178,20.5003253 32.6351389,16.1285033 32.6355848,32.4652874 Z" id="Path"></path>
      </g>
  </g>
</svg>