<svg viewBox="0 0 445 50" version="1.1" xmlns="http://www.w3.org/2000/svg" xmlns:xlink="http://www.w3.org/1999/xlink">
    <g id="Page-2" stroke="none" stroke-width="1" fill="none" fill-rule="evenodd">
        <g id="Group" transform="translate(1.000000, 1.000000)" fill="#538135" fill-rule="nonzero" stroke="#538135" stroke-width="0.91">
            <path d="M16.24896,31.05648 C23.55444,31.7772 29.3202,33.31692 32.56344,41.08104 C34.10316,44.78292 34.62732,47.40372 31.25304,47.8296 L31.25304,47.96064 L48.61584,47.96064 L48.61584,47.8296 C45.3726,47.30544 43.63632,43.70184 41.47416,39.08268 L23.03028,0 L22.89924,0 L17.65764,13.4316 L17.78868,13.49712 C18.57492,13.104 20.01636,12.9402 22.53888,18.57492 L26.10972,26.56836 C27.91152,30.59784 26.27352,30.92544 21.68712,30.92544 L16.24896,30.92544 L16.24896,31.05648 Z M0,47.96064 L17.78868,47.96064 L17.78868,47.8296 C11.72808,46.25712 7.8624,41.96556 15.33168,20.50776 L15.20064,20.44224 C7.6986,39.01716 5.37264,46.683 0,47.8296 L0,47.96064 Z" id="path472721"></path>
            <path d="M45.5927108,47.96064 L62.2675508,47.96064 L62.2675508,47.8296 C59.6467508,47.1744 58.1070308,45.17604 58.1070308,41.90004 L58.1070308,6.51924 C58.1070308,3.24324 59.6467508,1.24488 62.2675508,0.58968 L62.2675508,0.45864 L45.5927108,0.45864 L45.5927108,0.58968 C48.2135108,1.24488 49.7532308,3.24324 49.7532308,6.51924 L49.7532308,41.90004 C49.7532308,45.17604 48.2135108,47.1744 45.5927108,47.8296 L45.5927108,47.96064 Z M65.8711508,47.96064 C81.7269908,47.502 91.3911908,38.78784 91.1291108,23.4234 C90.8670308,8.15724 80.4821108,0.4914 65.8711508,0.45864 L65.8711508,0.58968 C74.9784308,1.17936 80.9407508,9.23832 81.1700708,24.30792 C81.3993908,39.08268 76.0595108,47.1744 65.8711508,47.8296 L65.8711508,47.96064 Z" id="path472723"></path>
            <path d="M136.27341,45.50364 C135.55269,45.83124 134.79921,46.0278 134.01297,46.0278 C131.42493,46.0278 130.31109,43.50528 127.52649,35.64288 C125.23329,29.18916 122.18661,25.389 112.75173,24.47172 C125.03673,24.27516 129.19725,19.13184 129.19725,12.1212 C129.19725,4.19328 123.95565,0.13104 113.27589,0.45864 L113.27589,0.58968 C117.30537,0.85176 119.72961,5.96232 119.72961,12.64536 C119.72961,17.78868 118.38645,24.2424 109.11537,24.2424 L109.11537,24.37344 C115.33977,25.84764 116.51913,29.61504 118.15713,35.83944 C120.51585,44.81568 122.87457,48.22272 128.37825,48.22272 C131.39217,48.22272 134.47161,47.14164 136.37169,45.63468 L136.27341,45.50364 Z M105.83937,41.90004 L105.83937,6.51924 C105.83937,3.24324 107.37909,1.24488 109.99989,0.58968 L109.99989,0.45864 L93.32505,0.45864 L93.32505,0.58968 C95.94585,1.24488 97.48557,3.24324 97.48557,6.51924 L97.48557,41.90004 C97.48557,45.17604 95.94585,47.1744 93.32505,47.8296 L93.32505,47.96064 L110.65509,47.96064 L110.65509,47.8296 C107.70669,47.1744 105.83937,45.17604 105.83937,41.90004 Z" id="path472725"></path>
            <path d="M132.611461,47.96064 L149.286301,47.96064 L149.286301,47.8296 C146.665501,47.1744 145.125781,45.17604 145.125781,41.90004 L145.125781,6.51924 C145.125781,3.24324 146.665501,1.24488 149.286301,0.58968 L149.286301,0.45864 L132.611461,0.45864 L132.611461,0.58968 C135.232261,1.24488 136.771981,3.24324 136.771981,6.51924 L136.771981,41.90004 C136.771981,45.17604 135.232261,47.1744 132.611461,47.8296 L132.611461,47.96064 Z" id="path472727"></path>
            <path d="M183.989378,16.28172 L184.120418,16.2162 C183.530738,9.04176 184.153178,3.53808 184.906658,0.09828 L184.775618,0.03276 C182.253098,0.52416 175.340738,0.72072 168.592178,0.45864 L168.592178,0.58968 C177.273578,1.17936 181.040978,8.61588 183.989378,16.28172 L183.989378,16.28172 Z M151.294898,47.96064 L165.348938,47.96064 L165.348938,47.8296 C164.038538,47.502 163.809218,46.15884 163.809218,43.21044 L163.809218,5.20884 C163.809218,2.26044 164.038538,0.91728 165.348938,0.58968 L165.348938,0.45864 L151.294898,0.45864 L151.294898,0.58968 C153.915698,1.24488 155.455418,3.24324 155.455418,6.51924 L155.455418,41.90004 C155.455418,45.17604 153.915698,47.1744 151.294898,47.8296 L151.294898,47.96064 Z M179.632298,31.97376 L179.763338,31.90824 C179.108138,25.84764 179.271938,19.8198 180.090938,13.82472 L179.959898,13.7592 C177.797738,20.83536 174.947618,21.81816 167.085218,22.80096 L167.085218,22.932 C174.620018,23.9148 177.470138,24.8976 179.632298,31.97376 L179.632298,31.97376 Z M184.448018,48.25548 L184.579058,48.18996 C184.251458,44.75016 183.956618,38.59128 185.430818,27.48564 L185.299778,27.42012 C182.351378,39.01716 177.306338,47.23992 168.592178,47.8296 L168.592178,47.96064 C175.340738,47.69856 181.925498,47.76408 184.448018,48.25548 L184.448018,48.25548 Z" id="path472729"></path>
            <path d="M225.139005,48.28824 L225.270045,48.28824 L225.925245,28.53396 L225.794205,28.53396 C225.139005,31.02372 223.533765,31.2858 221.928525,29.25468 L202.338045,4.38984 C200.175885,1.638 199.520685,0.45864 196.605045,0.45864 L185.237325,0.45864 L185.237325,0.58968 C188.840925,1.24488 191.527245,5.14332 194.803245,9.3366 L225.139005,48.28824 Z M226.252845,22.53888 C226.777005,6.65028 229.201245,1.40868 234.508365,0.58968 L234.508365,0.45864 L217.833525,0.45864 L217.833525,0.58968 C223.140645,1.40868 225.597645,6.61752 226.121805,22.53888 L226.252845,22.53888 Z M193.066965,16.38 C192.542805,41.80176 190.118565,47.0106 184.811445,47.8296 L184.811445,47.96064 L201.486285,47.96064 L201.486285,47.8296 C196.179165,47.0106 193.722165,41.80176 193.198005,16.38 L193.066965,16.38 Z" id="path472731"></path>
            <path d="M232.55505,47.96064 L249.22989,47.96064 L249.22989,47.8296 C246.60909,47.1744 245.06937,45.17604 245.06937,41.90004 L245.06937,6.51924 C245.06937,3.24324 246.60909,1.24488 249.22989,0.58968 L249.22989,0.45864 L232.55505,0.45864 L232.55505,0.58968 C235.17585,1.24488 236.71557,3.24324 236.71557,6.51924 L236.71557,41.90004 C236.71557,45.17604 235.17585,47.1744 232.55505,47.8296 L232.55505,47.96064 Z M262.00629,47.96064 L278.68113,47.96064 L278.68113,47.8296 C276.06033,47.1744 274.52061,45.17604 274.52061,41.90004 L274.52061,6.51924 C274.52061,3.24324 276.06033,1.24488 278.68113,0.58968 L278.68113,0.45864 L262.00629,0.45864 L262.00629,0.58968 C264.62709,1.24488 266.16681,3.24324 266.16681,6.51924 L266.16681,19.656 C266.16681,21.55608 265.51161,22.21128 263.61153,22.21128 L248.34537,22.21128 L248.34537,22.34232 C256.63365,22.99752 266.10129,24.34068 266.16681,32.1048 L266.16681,41.90004 C266.16681,45.17604 264.62709,47.1744 262.00629,47.8296 L262.00629,47.96064 Z" id="path472733"></path>
            <path d="M303.9309,48.22272 L303.9309,48.09168 C297.83754,47.40372 292.20282,39.34476 291.9735,23.9148 C291.74418,9.20556 297.7065,1.04832 303.63606,0.1638 L303.63606,0.03276 C292.07178,0.72072 281.75238,9.5004 281.9817,24.76656 C282.21102,40.09824 292.33386,47.79684 303.9309,48.22272 Z M307.8621,48.22272 C319.75398,47.502 329.74578,38.78784 329.4837,23.4234 C329.22162,8.15724 319.1643,0.4914 307.56726,0.03276 L307.56726,0.1638 C313.66062,1.17936 319.29534,9.23832 319.52466,24.30792 C319.75398,39.08268 314.0865,47.1744 307.8621,48.09168 L307.8621,48.22272 Z" id="path472735"></path>
            <path d="M370.854559,34.46352 C370.821706,27.91152 366.497386,22.63716 353.458906,21.98196 C364.630066,21.09744 367.480186,15.49548 367.480186,10.28664 C367.480186,4.19328 362.893786,0.19656 352.050226,0.45864 L352.050226,0.58968 C357.226306,0.85176 358.340146,5.96232 358.340146,11.00736 C358.340146,14.51268 357.979786,21.6216 348.479386,21.9492 L348.479386,22.08024 C348.839746,22.08024 349.167346,22.113 349.494946,22.113 C357.914266,22.50612 360.633346,27.3546 360.633346,34.85664 C360.633346,41.37588 358.569466,47.502 352.705426,47.8296 L352.705426,47.96064 C362.238586,48.02616 370.887226,43.70184 370.854559,34.46352 Z M345.268906,41.90004 L345.268906,6.51924 C345.268906,3.24324 346.808626,1.24488 348.774226,0.58968 L348.774226,0.45864 L332.754586,0.45864 L332.754586,0.58968 C335.375386,1.24488 336.915106,3.24324 336.915106,6.51924 L336.915106,41.90004 C336.915106,45.17604 335.375386,47.1744 332.754586,47.8296 L332.754586,47.96064 L349.429426,47.96064 L349.429426,47.8296 C346.808626,47.1744 345.268906,45.17604 345.268906,41.90004 L345.268906,41.90004 Z" id="path472737"></path>
            <path d="M410.652835,34.46352 C410.619983,27.91152 406.295663,22.63716 393.257183,21.98196 C404.428343,21.09744 407.278463,15.49548 407.278463,10.28664 C407.278463,4.19328 402.692063,0.19656 391.848503,0.45864 L391.848503,0.58968 C397.024583,0.85176 398.138423,5.96232 398.138423,11.00736 C398.138423,14.51268 397.778063,21.6216 388.277663,21.9492 L388.277663,22.08024 C388.638023,22.08024 388.965623,22.113 389.293223,22.113 C397.712543,22.50612 400.431623,27.3546 400.431623,34.85664 C400.431623,41.37588 398.367743,47.502 392.503703,47.8296 L392.503703,47.96064 C402.036863,48.02616 410.685503,43.70184 410.652835,34.46352 Z M385.067183,41.90004 L385.067183,6.51924 C385.067183,3.24324 386.606903,1.24488 388.572503,0.58968 L388.572503,0.45864 L372.552863,0.45864 L372.552863,0.58968 C375.173663,1.24488 376.713383,3.24324 376.713383,6.51924 L376.713383,41.90004 C376.713383,45.17604 375.173663,47.1744 372.552863,47.8296 L372.552863,47.96064 L389.227703,47.96064 L389.227703,47.8296 C386.606903,47.1744 385.067183,45.17604 385.067183,41.90004 L385.067183,41.90004 Z" id="path472739"></path>
            <path d="M442.752428,17.42832 L442.883468,17.3628 C441.966188,10.84356 441.278228,3.50532 442.031708,0.06552 L441.900668,0 C437.412548,2.7846 435.119348,0.68796 430.107068,0.39312 L430.074308,0.52416 C435.479708,1.76904 439.378148,8.91072 442.752428,17.42832 L442.752428,17.42832 Z M430.434668,48.22272 C435.807308,48.58308 443.473148,45.66744 443.473148,36.855 C443.473148,30.66336 439.378148,25.61832 432.400268,20.475 C425.127548,15.10236 420.148028,11.59704 420.148028,6.28992 C420.148028,2.06388 423.456788,0.196303472 426.241388,0.36036 L426.274148,0.22932 C421.589468,-0.13104 413.268428,2.39148 413.268428,11.10564 C413.268428,17.91972 418.477268,22.932 424.734428,27.45288 C432.826148,33.31692 436.265948,36.98604 436.265948,41.769 C436.265948,46.32264 433.284788,47.89512 430.467428,48.09168 L430.434668,48.22272 Z M413.792588,48.25548 C418.280708,45.47088 420.573908,47.69856 426.241388,48.09168 L426.274148,47.96064 C420.213548,46.61748 415.987508,39.4758 412.613228,30.9582 L412.482188,31.02372 C413.399468,37.54296 414.415028,44.75016 413.661548,48.18996 L413.792588,48.25548 Z" id="path472741"></path>
        </g>
    </g>
</svg>